<svg width="56" height="56" viewBox="0 0 56 56" fill="none" xmlns="http://www.w3.org/2000/svg">
<path d="M41.4985 25.75C41.4985 26.9919 40.4917 27.9987 39.2498 27.9987C38.0078 27.9987 37.001 26.9919 37.001 25.75V21.2475C37.001 20.0055 38.0078 18.9987 39.2498 18.9987C40.4917 18.9987 41.4985 20.0055 41.4985 21.2475V25.75Z" fill="#41D4BC"/>
<path d="M40.2879 2.57576L46.3275 2.57576C50.247 2.57576 53.4242 5.75182 53.4242 9.66946V15.7121C53.4242 16.4234 54.0008 17 54.7121 17C55.4234 17 56 16.4234 56 15.7121V9.66946C56 4.32906 51.6694 0 46.3275 0L40.2879 0C39.5766 0 39 0.576603 39 1.28788C39 1.99915 39.5766 2.57576 40.2879 2.57576Z" fill="#41D4BC"/>
<path d="M2.57576 15.7121L2.57576 9.67252C2.57576 5.75298 5.75182 2.57576 9.66946 2.57576L15.7121 2.57576C16.4234 2.57576 17 1.99915 17 1.28788C17 0.576603 16.4234 0 15.7121 0L9.66946 0C4.32906 0 0 4.33064 0 9.67252L0 15.7121C0 16.4234 0.576603 17 1.28788 17C1.99915 17 2.57576 16.4234 2.57576 15.7121Z" fill="#41D4BC"/>
<path d="M15.7121 53.4242L9.67252 53.4242C5.75298 53.4242 2.57576 50.2482 2.57576 46.3305L2.57576 40.2879C2.57576 39.5766 1.99915 39 1.28788 39C0.576603 39 0 39.5766 0 40.2879L0 46.3305C0 51.6709 4.33064 56 9.67252 56L15.7121 56C16.4234 56 17 55.4234 17 54.7121C17 54.0008 16.4234 53.4242 15.7121 53.4242Z" fill="#41D4BC"/>
<path d="M53.4242 40.2879L53.4242 46.3275C53.4242 50.247 50.2482 53.4242 46.3305 53.4242L40.2879 53.4242C39.5766 53.4242 39 54.0008 39 54.7121C39 55.4234 39.5766 56 40.2879 56L46.3305 56C51.6709 56 56 51.6694 56 46.3275V40.2879C56 39.5766 55.4234 39 54.7121 39C54.0008 39 53.4242 39.5766 53.4242 40.2879Z" fill="#41D4BC"/>
<path d="M18.5 25.75C18.5 26.9926 17.4926 28 16.25 28C15.0074 28 14 26.9926 14 25.75L14 21.25C14 20.0074 15.0074 19 16.25 19C17.4926 19 18.5 20.0074 18.5 21.25L18.5 25.75Z" fill="#41D4BC"/>
<path d="M27.5883 20.2844L27.5883 29.577C27.5883 30.9032 26.9315 32.1361 25.8495 32.841L24.6423 33.6274C24.0635 34.0044 23.8887 34.7972 24.2518 35.3981C24.615 35.9989 25.3785 36.1804 25.9572 35.8034L27.1645 35.017C28.9678 33.8422 30.0625 31.7873 30.0625 29.577L30.0625 20.2844C30.0625 19.5751 29.5086 19 28.8254 19C28.1422 19 27.5883 19.5751 27.5883 20.2844Z" fill="#41D4BC"/>
<path d="M19.0948 41.8135L20.7661 42.8466C25.3553 45.6835 31.1528 45.6844 35.7429 42.8489L37.4187 41.8137C38.006 41.4509 38.188 40.6807 37.8253 40.0933C37.4626 39.506 36.6926 39.3239 36.1053 39.6867L34.4295 40.7219C30.6447 43.0599 25.8642 43.0592 22.0802 40.72L20.4089 39.6869C19.8218 39.3239 19.0517 39.5058 18.6888 40.093C18.3259 40.6802 18.5077 41.4505 19.0948 41.8135Z" fill="#41D4BC"/>
</svg>
