<svg width="24" height="24" viewBox="0 0 24 24" fill="none" xmlns="http://www.w3.org/2000/svg">
<rect width="24" height="24" fill="white"/>
<path d="M1.45167 9.77939C1.75723 9.55758 2.18583 9.62399 2.4091 9.92758L2.41072 9.92977L2.41871 9.94048C2.4262 9.95048 2.43801 9.96613 2.45402 9.98706C2.48605 10.0289 2.53488 10.0919 2.59967 10.1729C2.72929 10.335 2.92249 10.569 3.17249 10.851C3.6733 11.4158 4.39784 12.1683 5.29189 12.9191C7.09986 14.4375 9.50476 15.8682 12.0999 15.8682C14.6955 15.8682 17.1077 14.4371 18.9232 12.9183C19.8209 12.1673 20.5491 11.4147 21.0526 10.8497C21.304 10.5676 21.4983 10.3335 21.6287 10.1714C21.6939 10.0904 21.743 10.0274 21.7753 9.9855C21.7914 9.96456 21.8033 9.94889 21.8108 9.93888L21.8189 9.92815L21.8205 9.92595C22.0447 9.62295 22.4734 9.55785 22.7784 9.78058C23.0834 10.0034 23.149 10.4298 22.9249 10.733L22.9242 10.7339L22.9231 10.7354L22.9196 10.74L22.9076 10.756C22.8974 10.7695 22.8828 10.7888 22.8639 10.8134C22.826 10.8626 22.7708 10.9333 22.6992 11.0223C22.6267 11.1125 22.5372 11.2216 22.4316 11.3465L22.4401 11.3548L23.7324 12.6395C24.0892 12.9942 24.0892 13.5693 23.7324 13.9241C23.3755 14.2788 22.797 14.2788 22.4401 13.9241L21.196 12.6873C20.7927 13.0902 20.3264 13.5252 19.8058 13.9608C19.4431 14.2642 19.0505 14.5708 18.6312 14.8684C18.6716 14.9075 18.7089 14.9509 18.7425 14.9985L19.7907 16.4867C20.0801 16.8977 19.9797 17.4641 19.5663 17.7518C19.1529 18.0396 18.5831 17.9397 18.2937 17.5287L17.2454 16.0406C17.1953 15.9694 17.1568 15.8935 17.1297 15.8152C15.9005 16.4934 14.5169 17.0191 13.0351 17.1798V18.7399C13.0351 19.2416 12.6259 19.6483 12.1213 19.6483C11.6166 19.6483 11.2075 19.2416 11.2075 18.7399V17.1843C9.68245 17.0263 8.26243 16.4801 7.00748 15.7769L6.99726 15.7917L5.94903 17.2799C5.65958 17.6909 5.0898 17.7907 4.67641 17.503C4.26302 17.2152 4.16256 16.6488 4.45202 16.2379L5.47113 14.791C5.09318 14.5176 4.73778 14.2375 4.40737 13.96C3.80438 13.4536 3.27483 12.9478 2.83219 12.4926L1.55989 13.7574C1.20304 14.1121 0.62448 14.1121 0.267634 13.7574C-0.0892113 13.4026 -0.0892114 12.8275 0.267634 12.4727L1.55989 11.1881C1.57886 11.1693 1.59845 11.1514 1.61861 11.1346C1.58547 11.0939 1.55484 11.0559 1.52676 11.0208C1.45554 10.9317 1.40067 10.8611 1.363 10.8118C1.34416 10.7872 1.32962 10.7679 1.31948 10.7544L1.30757 10.7384L1.30412 10.7338L1.30234 10.7313C1.07914 10.4275 1.146 10.0013 1.45167 9.77939Z" fill="#41D4BC"/>
</svg>
