<svg width="56" height="56" viewBox="0 0 56 56" fill="none" xmlns="http://www.w3.org/2000/svg">
<path d="M8.06274 9.01847V23.256C8.06274 23.8248 8.52385 24.2856 9.0923 24.2856H23.3302C23.8986 24.2856 24.3597 23.8248 24.3597 23.256V20.5564C24.3597 19.9876 23.8986 19.5268 23.3302 19.5268C22.7617 19.5268 22.3009 19.9876 22.3009 20.5564V22.2268H10.1219V10.0477H22.3009V12.5263C22.3009 13.095 22.7617 13.5561 23.3302 13.5561C23.8986 13.5561 24.3597 13.095 24.3597 12.5263V9.01847C24.3597 8.4497 23.8986 7.98891 23.3302 7.98891H9.0923C8.52385 7.98891 8.06274 8.4497 8.06274 9.01847Z" fill="#793377"/>
<path d="M14.0756 12.9723C13.5069 12.9723 13.0464 13.4331 13.0464 14.0015V18.2729C13.0464 18.8414 13.5069 19.3025 14.0756 19.3025H18.347C18.9155 19.3025 19.3766 18.8414 19.3766 18.2729V14.0015C19.3766 13.4331 18.9155 12.9723 18.347 12.9723H14.0756ZM17.3178 17.2437H15.1052V15.0311H17.3178V17.2437Z" fill="#793377"/>
<path d="M23.3302 31.6376H9.0923C8.52385 31.6376 8.06274 32.0984 8.06274 32.6668V46.905C8.06274 47.4734 8.52385 47.9342 9.0923 47.9342H23.3302C23.8986 47.9342 24.3597 47.4734 24.3597 46.905V32.6668C24.3597 32.0984 23.8986 31.6376 23.3302 31.6376ZM22.3009 45.8754H10.1219V33.6964H22.3009V45.8754Z" fill="#793377"/>
<path d="M32.8124 24.2856H47.0506C47.6187 24.2856 48.0798 23.8248 48.0798 23.256V9.01847C48.0798 8.4497 47.6187 7.98891 47.0506 7.98891H32.8124C32.2439 7.98891 31.7828 8.4497 31.7828 9.01847V23.256C31.7828 23.8248 32.2439 24.2856 32.8124 24.2856ZM33.8416 10.0477H46.0207V22.2268H33.8416V10.0477Z" fill="#793377"/>
<path d="M48.0798 46.905V32.6668C48.0798 32.0984 47.6187 31.6376 47.0506 31.6376H32.8124C32.2439 31.6376 31.7828 32.0984 31.7828 32.6668V46.905C31.7828 47.4734 32.2439 47.9342 32.8124 47.9342H47.0506C47.6187 47.9342 48.0798 47.4734 48.0798 46.905ZM46.0207 45.8754H33.8416V33.6964H46.0207V45.8754Z" fill="#793377"/>
<path d="M47.0508 29.0532C47.6189 29.0532 48.08 28.5921 48.08 28.0236C48.08 27.4549 47.6189 26.9944 47.0508 26.9944H29.0013V8.90428C29.0013 8.33583 28.5402 7.87473 27.9721 7.87473C27.403 7.87473 26.9422 8.33583 26.9422 8.90428V26.9944H13.2783C12.7101 26.9944 12.249 27.4552 12.249 28.0236C12.249 28.5924 12.7101 29.0532 13.2783 29.0532H26.9422V46.9049C26.9422 47.4734 27.403 47.9342 27.9721 47.9342C28.5402 47.9342 29.0013 47.4734 29.0013 46.9049V29.0532H47.0508Z" fill="#793377"/>
<path d="M14.0756 43.0277H18.347C18.9155 43.0277 19.3766 42.5666 19.3766 41.9982V37.7268C19.3766 37.158 18.9155 36.6975 18.347 36.6975H14.0756C13.5069 36.6975 13.0464 37.158 13.0464 37.7268V41.9982C13.0464 42.5666 13.5069 43.0277 14.0756 43.0277ZM15.1052 38.7563H17.3178V40.9689H15.1052V38.7563Z" fill="#793377"/>
<path d="M42.0669 12.9723H37.7955C37.2271 12.9723 36.766 13.4331 36.766 14.0015V18.2729C36.766 18.8414 37.2271 19.3025 37.7955 19.3025H42.0669C42.6357 19.3025 43.0965 18.8414 43.0965 18.2729V14.0015C43.0965 13.4331 42.6357 12.9723 42.0669 12.9723ZM41.0374 17.2437H38.8254V15.0311H41.0374V17.2437Z" fill="#793377"/>
<path d="M37.7955 43.0277H42.0669C42.6357 43.0277 43.0965 42.5666 43.0965 41.9982V37.7268C43.0965 37.158 42.6357 36.6975 42.0669 36.6975H37.7955C37.2271 36.6975 36.766 37.158 36.766 37.7268V41.9982C36.766 42.5666 37.2271 43.0277 37.7955 43.0277ZM38.8254 38.7563H41.0374V40.9689H38.8254V38.7563Z" fill="#793377"/>
<path d="M8.88399 26.9987L8.82855 27.0115C8.27517 27.1422 7.9323 27.6966 8.06272 28.25C8.17455 28.7239 8.5972 29.0437 9.06375 29.0437C9.14226 29.0437 9.22141 29.0344 9.30087 29.0155L9.35599 29.0027C9.9097 28.8722 10.2526 28.3179 10.1218 27.7645C9.99173 27.2114 9.43738 26.8686 8.88399 26.9987Z" fill="#793377"/>
<path d="M23.1229 15.5139L23.0674 15.5271C22.514 15.6568 22.1708 16.2109 22.3006 16.7646C22.4115 17.2391 22.8345 17.5593 23.302 17.5593C23.3795 17.5593 23.4584 17.5503 23.5378 17.5314L23.5929 17.5186C24.1466 17.3888 24.4898 16.8344 24.3601 16.2814C24.2303 15.728 23.6759 15.3842 23.1229 15.5139Z" fill="#793377"/>
<path d="M2.75189 10.2095C3.32098 10.2095 3.78145 9.74872 3.78145 9.18027V3.83606H8.93115C9.49992 3.83606 9.96103 3.3756 9.96103 2.80683C9.96103 2.23838 9.49992 1.77727 8.93115 1.77727H2.75189C2.18376 1.77727 1.72266 2.23838 1.72266 2.80683V9.18027C1.72266 9.74872 2.18376 10.2095 2.75189 10.2095Z" fill="#793377"/>
<path d="M53.1934 1.77727H47.0141C46.4454 1.77727 45.9843 2.23838 45.9843 2.80683C45.9843 3.3756 46.4454 3.83606 47.0141 3.83606H52.1638V9.18027C52.1638 9.74872 52.6243 10.2095 53.1934 10.2095C53.7615 10.2095 54.2226 9.74872 54.2226 9.18027V2.80683C54.2226 2.23838 53.7615 1.77727 53.1934 1.77727Z" fill="#793377"/>
<path d="M8.93115 52.1743H3.78145V46.8304C3.78145 46.2622 3.32098 45.8011 2.75189 45.8011C2.18376 45.8011 1.72266 46.2622 1.72266 46.8304V53.2038C1.72266 53.7723 2.18376 54.2334 2.75189 54.2334H8.93115C9.49992 54.2334 9.96103 53.7723 9.96103 53.2038C9.96103 52.635 9.49992 52.1743 8.93115 52.1743Z" fill="#793377"/>
<path d="M53.1934 45.8011C52.6243 45.8011 52.1638 46.2622 52.1638 46.8304V52.1743H47.0141C46.4454 52.1743 45.9843 52.635 45.9843 53.2038C45.9843 53.7723 46.4454 54.2334 47.0141 54.2334H53.1934C53.7615 54.2334 54.2226 53.7723 54.2226 53.2038V46.8304C54.2226 46.2622 53.7615 45.8011 53.1934 45.8011Z" fill="#793377"/>
</svg>
