<svg width="56" height="56" viewBox="0 0 56 56" fill="none" xmlns="http://www.w3.org/2000/svg">
<path fill-rule="evenodd" clip-rule="evenodd" d="M1.27667 34.5125C0.933975 34.5125 0.627349 34.2754 0.557006 33.9322C-0.0784913 30.8305 -0.170737 27.6841 0.283018 24.5808C0.721484 21.5813 1.65871 18.6868 3.06867 15.9779C3.25368 15.6223 3.69653 15.4817 4.05778 15.6638C4.41903 15.8459 4.56195 16.2816 4.37694 16.637C3.0411 19.2035 2.15318 21.9455 1.73782 24.7867C1.30802 27.7261 1.39555 30.707 1.9978 33.6464C2.07802 34.0379 1.82053 34.4192 1.42269 34.4982C1.37364 34.5078 1.32477 34.5125 1.27667 34.5125Z" fill="#41D4BC"/>
<path fill-rule="evenodd" clip-rule="evenodd" d="M5.97567 13.4297C5.82537 13.4297 5.67377 13.3844 5.54313 13.2906C5.21521 13.0553 5.1434 12.6029 5.38261 12.2804C9.50866 6.71697 15.5632 2.90279 22.431 1.54058C28.5245 0.331833 34.6874 1.11358 40.2536 3.80158C40.6179 3.97752 40.7682 4.41077 40.5894 4.76932C40.4106 5.12779 39.9704 5.27567 39.6059 5.09982C34.3334 2.55353 28.4948 1.81302 22.7215 2.95823C16.2149 4.24877 10.4789 7.86218 6.56994 13.1327C6.42608 13.3267 6.20242 13.4297 5.97567 13.4297Z" fill="#41D4BC"/>
<path fill-rule="evenodd" clip-rule="evenodd" d="M54.6318 23.928C54.2891 23.928 53.9824 23.6909 53.9122 23.3476C52.5648 16.7704 48.7495 11.0263 43.1692 7.1734C42.8371 6.94398 42.7567 6.49306 42.9898 6.1662C43.2231 5.83925 43.6814 5.76024 44.0136 5.98967C49.9037 10.0565 53.9308 16.1195 55.3531 23.0619C55.4332 23.4534 55.1757 23.8347 54.7778 23.9136C54.7289 23.9233 54.68 23.928 54.6318 23.928Z" fill="#41D4BC"/>
<path fill-rule="evenodd" clip-rule="evenodd" d="M55.1846 29.7586C55.1799 29.7586 55.1751 29.7586 55.1703 29.7585C54.7645 29.7509 54.4418 29.4211 54.4495 29.0218C54.4863 27.1247 54.3104 25.2146 53.927 23.3446C53.8468 22.9531 54.1043 22.5718 54.5021 22.4928C54.9004 22.4138 55.2876 22.6671 55.3678 23.0586C55.7724 25.0317 55.9579 27.0472 55.9192 29.0493C55.9115 29.4439 55.584 29.7586 55.1846 29.7586Z" fill="#41D4BC"/>
<path fill-rule="evenodd" clip-rule="evenodd" d="M1.55161 35.6524C1.22128 35.6524 0.921097 35.4317 0.838557 35.1021C0.73944 34.7058 0.649428 34.3115 0.571097 33.9303C0.490704 33.5388 0.748115 33.1575 1.14596 33.0785C1.54431 32.9992 1.9315 33.2524 2.01189 33.6439C2.0861 34.0054 2.17148 34.3796 2.26578 34.7563C2.36284 35.144 2.12209 35.5358 1.72794 35.6312C1.66894 35.6455 1.60976 35.6524 1.55161 35.6524Z" fill="#41D4BC"/>
<path fill-rule="evenodd" clip-rule="evenodd" d="M20.929 55.0913C20.7567 55.0913 20.5838 55.0321 20.4441 54.9114C20.1393 54.6479 20.1092 54.1911 20.3772 53.891C23.3544 50.557 25.5621 46.5411 26.7615 42.2773C28.019 37.807 28.1804 33.2184 27.2414 28.6388C27.1611 28.2474 27.4186 27.8661 27.8165 27.7871C28.2145 27.7079 28.6019 27.9615 28.6821 28.3529C29.6674 33.1571 29.4977 37.9717 28.1781 42.6631C26.9199 47.1359 24.6042 51.3486 21.4813 54.8455C21.3361 55.0082 21.133 55.0913 20.929 55.0913Z" fill="#41D4BC"/>
<path fill-rule="evenodd" clip-rule="evenodd" d="M17.4104 53.9059C17.2254 53.9059 17.0402 53.8376 16.8973 53.7004C16.6067 53.4216 16.601 52.964 16.8844 52.678C19.3914 50.1493 21.3242 47.1993 22.6289 43.9099C22.7764 43.538 23.2028 43.3543 23.5806 43.4992C23.9588 43.6443 24.1457 44.0636 23.9981 44.4356C22.6214 47.9066 20.582 51.0194 17.9365 53.6878C17.7925 53.8331 17.6016 53.9059 17.4104 53.9059Z" fill="#41D4BC"/>
<path fill-rule="evenodd" clip-rule="evenodd" d="M24.7387 55.8131C24.5804 55.8131 24.421 55.7631 24.2867 55.6598C23.9669 55.4138 23.9102 54.9595 24.1602 54.6449C30.1632 47.0868 32.5019 37.367 30.5769 27.9778L30.5274 27.7364C30.3483 27.1463 29.969 26.6409 29.4412 26.2959C28.8437 25.9054 28.1278 25.7673 27.4252 25.9068C26.0953 26.1705 25.1926 27.3645 25.2756 28.6612L25.3479 29.0142C26.1126 32.7473 26.0925 36.5132 25.2882 40.2074C25.2032 40.5978 24.8124 40.8464 24.4157 40.7629C24.0189 40.6793 23.766 40.2949 23.8511 39.9045C24.5628 36.6352 24.626 33.3057 24.0403 29.9972L24.0252 29.9999L23.8828 29.3042C23.4302 27.0945 24.8889 24.9344 27.1345 24.4893C28.2218 24.2731 29.33 24.487 30.2545 25.0913C31.1789 25.6956 31.809 26.6178 32.0286 27.6882L32.158 28.3189L32.1411 28.3243C33.9211 37.9308 31.4513 47.8137 25.3183 55.5353C25.1734 55.7177 24.9571 55.8131 24.7387 55.8131Z" fill="#41D4BC"/>
<path fill-rule="evenodd" clip-rule="evenodd" d="M14.1959 52.3195C13.9995 52.3195 13.8038 52.2427 13.6591 52.0905C13.3817 51.7989 13.3973 51.3413 13.6937 51.0685C19.1587 46.0383 21.8239 38.6945 20.8231 31.4237C20.7687 31.0279 21.0506 30.6636 21.4528 30.6101C21.8553 30.5564 22.2252 30.8338 22.2797 31.2296C23.3442 38.9637 20.5098 46.775 14.6978 52.1244C14.5561 52.2549 14.3758 52.3195 14.1959 52.3195Z" fill="#41D4BC"/>
<path fill-rule="evenodd" clip-rule="evenodd" d="M35.3777 35.1096C34.9728 35.1096 34.6441 34.7872 34.6429 34.3885C34.6367 32.0317 34.3909 29.6521 33.9125 27.3155L33.8552 27.0358C33.4868 25.5866 32.5953 24.3422 31.3223 23.5098C29.9688 22.625 28.3462 22.3119 26.7534 22.6279C24.3625 23.1023 22.4957 24.9265 21.9972 27.2752C21.9144 27.6662 21.5249 27.9171 21.1277 27.8353C20.7304 27.7536 20.4755 27.3706 20.5585 26.9797C21.1772 24.0638 23.4947 21.7993 26.4627 21.2105C28.4403 20.8178 30.4552 21.2066 32.1358 22.3055C33.8163 23.4042 34.9613 25.0812 35.3598 27.0273L35.4784 27.6068L35.4677 27.6112C35.8899 29.8531 36.1068 32.1288 36.1128 34.3847C36.1138 34.784 35.7857 35.1085 35.3798 35.1096H35.3777Z" fill="#41D4BC"/>
<path fill-rule="evenodd" clip-rule="evenodd" d="M28.8242 55.9842C28.6813 55.9842 28.5368 55.9432 28.41 55.8578C28.0748 55.6324 27.9891 55.1824 28.2183 54.8528C31.5949 49.9968 33.7355 44.3595 34.4087 38.5501C34.4546 38.1535 34.8194 37.8684 35.222 37.9137C35.6253 37.9589 35.915 38.3173 35.8689 38.714C35.1688 44.7566 32.9428 50.6195 29.4314 55.6692C29.289 55.874 29.0586 55.9842 28.8242 55.9842Z" fill="#41D4BC"/>
<path fill-rule="evenodd" clip-rule="evenodd" d="M11.2914 50.3894C11.0856 50.3894 10.8808 50.3048 10.7355 50.1397C10.4698 49.8379 10.5032 49.3812 10.81 49.1198C13.4036 46.9095 15.3772 44.0578 16.5171 40.8729C17.612 37.8139 17.9021 34.5237 17.3657 31.3137L17.3598 31.3147L17.2187 30.6267C16.6401 27.8047 17.2131 24.9301 18.8324 22.5325C20.4514 20.135 22.9227 18.5014 25.791 17.9324C26.7885 17.7344 27.8048 17.673 28.8118 17.75C29.2165 17.781 29.519 18.1288 29.4875 18.5269C29.456 18.9251 29.1033 19.2225 28.6979 19.1917C27.8263 19.125 26.9462 19.1784 26.0816 19.35C23.5981 19.8427 21.4584 21.257 20.0566 23.3328C18.767 25.2422 18.2439 27.5012 18.5582 29.7527L18.6781 30.3376C19.4328 34.0195 19.1649 37.8286 17.9035 41.3531C16.6789 44.7748 14.5587 47.8385 11.7722 50.2129C11.6331 50.3314 11.4619 50.3894 11.2914 50.3894Z" fill="#41D4BC"/>
<path fill-rule="evenodd" clip-rule="evenodd" d="M33.1628 55.4988C33.0365 55.4988 32.9085 55.4668 32.7918 55.3994C32.4416 55.1973 32.3243 54.7543 32.5296 54.4098C37.5236 46.0345 39.1988 36.1773 37.2467 26.6539L37.1825 26.3407C36.5683 23.7967 34.9011 21.6232 32.5692 20.3436C32.2147 20.149 32.0877 19.7086 32.2854 19.3599C32.483 19.0111 32.9306 18.886 33.2851 19.0806C36.0873 20.6183 38.0583 23.2737 38.6927 26.366L38.8187 26.9803L38.8087 26.9837C40.6378 36.6645 38.8672 46.6393 33.7975 55.1416C33.6606 55.3711 33.4151 55.4988 33.1628 55.4988Z" fill="#41D4BC"/>
<path fill-rule="evenodd" clip-rule="evenodd" d="M8.70742 48.1502C8.49476 48.1502 8.28381 48.0599 8.13849 47.8854C7.88125 47.5765 7.92728 47.1209 8.2413 46.8679C10.4177 45.1139 12.1071 42.822 13.1268 40.2398C13.2737 39.8675 13.6996 39.683 14.0779 39.8277C14.4563 39.9723 14.6438 40.3913 14.4968 40.7635C13.3856 43.5774 11.5445 46.0751 9.17268 47.9866C9.03612 48.0967 8.87121 48.1502 8.70742 48.1502Z" fill="#41D4BC"/>
<path fill-rule="evenodd" clip-rule="evenodd" d="M41.6008 42.239C41.5612 42.239 41.5209 42.2358 41.4806 42.2292C41.0801 42.1644 40.8088 41.7924 40.8747 41.3985C41.7287 36.2937 41.6303 31.1103 40.5822 25.9925L40.5423 25.7978C39.8272 22.5613 37.8949 19.7762 35.0846 17.9392C32.2186 16.0657 28.7825 15.4026 25.4098 16.072C22.0359 16.7411 19.1291 18.6626 17.2249 21.4826C15.4436 24.1202 14.7388 27.2487 15.2121 30.3583L15.3432 30.999C15.7038 32.7615 15.7889 34.5502 15.5961 36.3156C15.5528 36.7127 15.1902 36.9999 14.7869 36.9573C14.3833 36.9147 14.0914 36.5582 14.1347 36.1612C14.2856 34.7793 14.2506 33.3811 14.0312 31.995L13.8863 31.2885C13.1281 27.5907 13.879 23.824 16.0006 20.6823C18.1223 17.5406 21.3606 15.3999 25.1192 14.6544C28.8768 13.9087 32.7049 14.6475 35.898 16.7346C39.0912 18.822 41.2667 22.0078 42.0244 25.7054L42.0933 26.0424L42.0909 26.0452C43.1103 31.2253 43.1892 36.4676 42.3251 41.6332C42.2658 41.9875 41.9541 42.239 41.6008 42.239Z" fill="#41D4BC"/>
<path fill-rule="evenodd" clip-rule="evenodd" d="M37.7187 54.2151C37.6107 54.2151 37.501 54.1915 37.3973 54.1418C37.0324 53.9668 36.8808 53.5341 37.0586 53.1751C38.2773 50.7143 39.2585 48.131 39.9749 45.4966C40.0798 45.111 40.4826 44.8825 40.8749 44.985C41.267 45.0883 41.4997 45.4847 41.3949 45.8706C40.6541 48.594 39.6397 51.2647 38.3798 53.8085C38.2526 54.0655 37.991 54.2151 37.7187 54.2151Z" fill="#41D4BC"/>
<path fill-rule="evenodd" clip-rule="evenodd" d="M42.4519 51.8865C42.3646 51.8865 42.2759 51.871 42.1895 51.8386C41.8104 51.6959 41.6206 51.2779 41.7657 50.9049C44.9106 42.8162 45.6661 34.0403 43.954 25.5134L43.9159 25.3305C43.4473 23.0452 42.508 20.9384 41.124 19.0687C40.8852 18.7459 40.9573 18.2936 41.2854 18.0585C41.6136 17.8234 42.0732 17.8946 42.3121 18.2174C43.7611 20.1748 44.763 22.3699 45.2928 24.7459L45.2958 24.7479L45.3578 25.0453C47.1727 33.8983 46.4053 43.019 43.1385 51.4216C43.0265 51.7095 42.7477 51.8865 42.4519 51.8865Z" fill="#41D4BC"/>
<path fill-rule="evenodd" clip-rule="evenodd" d="M38.7451 16.2722C38.5813 16.2722 38.4166 16.2186 38.28 16.1085C34.4814 13.0482 29.5453 11.8397 24.7368 12.7933C23.4993 13.0385 22.2952 13.4229 21.1578 13.936C20.7888 14.1023 20.3526 13.943 20.1835 13.5799C20.0144 13.2169 20.1763 12.7878 20.5453 12.6213C21.7856 12.062 23.0981 11.6428 24.4465 11.3756C29.6884 10.3358 35.0701 11.6533 39.2112 14.9897C39.5252 15.2427 39.5713 15.6983 39.3141 16.0072C39.1689 16.1817 38.9578 16.2722 38.7451 16.2722Z" fill="#41D4BC"/>
<path fill-rule="evenodd" clip-rule="evenodd" d="M6.4527 45.6383C6.23763 45.6383 6.02454 45.5458 5.8793 45.3681C5.62507 45.0568 5.67557 44.6016 5.9919 44.3515C9.61662 41.4865 11.377 36.9947 10.6693 32.5148L10.5534 31.9494C9.24411 25.5614 11.6275 19.039 16.7733 14.9275C17.0884 14.6758 17.5512 14.723 17.807 15.033C18.0629 15.343 18.015 15.7983 17.6999 16.0501C13.1502 19.6853 10.9547 25.3747 11.8772 31.0279L12.007 31.6608C13.0726 36.858 11.1205 42.1528 6.91255 45.4788C6.77676 45.5862 6.61417 45.6383 6.4527 45.6383Z" fill="#41D4BC"/>
<path fill-rule="evenodd" clip-rule="evenodd" d="M4.53169 42.8614C4.32324 42.8614 4.11607 42.7745 3.97066 42.6057C3.70827 42.3011 3.74649 41.8449 4.05621 41.5866C6.5848 39.4783 7.80804 36.2368 7.3097 33.0389L7.22167 32.6103C7.0005 31.5325 6.86462 30.4264 6.81799 29.3225C6.80107 28.9235 7.11619 28.5866 7.52168 28.57C7.92716 28.5545 8.26961 28.8634 8.28653 29.2623C8.32097 30.0765 8.40746 30.8918 8.5442 31.6942L8.67277 32.322C9.46201 36.1734 8.05712 40.1462 5.00649 42.69C4.86838 42.805 4.69961 42.8614 4.53169 42.8614Z" fill="#41D4BC"/>
<path fill-rule="evenodd" clip-rule="evenodd" d="M48.4339 27.8503C48.0759 27.8503 47.7622 27.5925 47.7079 27.2336C47.5955 26.49 47.4659 25.7458 47.3218 25.0165L47.2482 24.6694C46.2093 19.5989 43.2258 15.2302 38.8472 12.3681C34.4687 9.5059 29.2191 8.49278 24.0651 9.51511C20.1008 10.3015 16.5331 12.2307 13.7478 15.0942C11.0247 17.8936 9.23067 21.3828 8.55953 25.1846C8.49013 25.578 8.11007 25.8418 7.70974 25.7731C7.30984 25.7049 7.04195 25.3306 7.11143 24.9371C7.83273 20.8514 9.76035 17.102 12.6859 14.0943C15.6799 11.0162 19.5143 8.94259 23.7746 8.09747C29.3135 6.99883 34.9551 8.08775 39.6606 11.1636C44.2155 14.141 47.3655 18.6351 48.5753 23.862L48.5823 23.8627L48.6929 24.3839C48.8699 25.2474 49.0278 26.1346 49.1618 27.0208C49.2215 27.4157 48.9445 27.7836 48.5431 27.8424C48.5063 27.8477 48.4699 27.8503 48.4339 27.8503Z" fill="#41D4BC"/>
<path fill-rule="evenodd" clip-rule="evenodd" d="M47.2742 48.0818C47.2115 48.0818 47.1478 48.0738 47.0844 48.0571C46.6922 47.9542 46.4591 47.5581 46.5637 47.1722C47.9599 42.0219 48.4949 36.7119 48.1536 31.3896C48.128 30.991 48.4358 30.6476 48.8408 30.6225C49.246 30.5962 49.595 30.9 49.6205 31.2985C49.9719 36.7773 49.4212 42.2433 47.9838 47.5449C47.8961 47.8683 47.599 48.0818 47.2742 48.0818Z" fill="#41D4BC"/>
<path fill-rule="evenodd" clip-rule="evenodd" d="M2.92629 39.7467C2.74747 39.7467 2.5683 39.6829 2.42676 39.5538C2.12915 39.2823 2.11154 38.8249 2.38759 38.532C3.66022 37.1815 4.23216 35.324 3.94288 33.518L3.8892 33.2709C2.59287 26.9462 3.87761 20.5035 7.50661 15.1297C11.1356 9.75602 16.6744 6.09428 23.1028 4.81911C25.8027 4.28336 28.5421 4.1942 31.2448 4.55394C31.6471 4.60743 31.9291 4.97164 31.8746 5.36746C31.8201 5.76311 31.4494 6.04079 31.0477 5.98696C28.5077 5.64894 25.9325 5.73286 23.3933 6.23676C17.3497 7.43553 12.1426 10.8781 8.73088 15.93C5.3963 20.8677 4.16723 26.7656 5.25107 32.5813L5.33842 32.9835C5.81716 35.3208 5.11699 37.7626 3.46534 39.5153C3.32053 39.6689 3.12367 39.7467 2.92629 39.7467Z" fill="#41D4BC"/>
<path fill-rule="evenodd" clip-rule="evenodd" d="M51.9774 41.8061C51.9469 41.8061 51.9165 41.8043 51.8856 41.8005C51.4828 41.7511 51.197 41.3898 51.2471 40.9936C51.9421 35.5019 51.7509 29.9461 50.6794 24.4723L50.5798 24.0086C48.9282 15.9462 42.9516 9.37595 34.9825 6.86177C34.5959 6.73975 34.383 6.33261 34.507 5.95234C34.631 5.57207 35.045 5.36292 35.4312 5.48461C43.6832 8.0881 49.9266 14.7815 51.8719 23.047L51.8818 23.0454L52.027 23.7218C53.2117 29.4989 53.44 35.3701 52.7056 41.1723C52.6593 41.5382 52.3427 41.8061 51.9774 41.8061Z" fill="#41D4BC"/>
</svg>
