<svg width="60" height="60" viewBox="0 0 60 60" fill="none" xmlns="http://www.w3.org/2000/svg">
<rect width="60" height="60" fill="url(#paint0_linear)"/>
<path opacity="0.9" d="M12.9082 37.5762C11.2175 31.9112 11.6918 26.7028 14.3309 21.9508C16.9625 17.1735 20.9541 13.9678 26.3057 12.3336C31.5568 10.7301 36.6026 11.1486 41.4431 13.5889C46.276 16.004 49.553 20.0946 51.2738 25.8607C52.9947 31.6268 52.5067 36.8809 49.8098 41.623C47.138 46.3573 43.164 49.5301 37.8877 51.1412C32.4608 52.7984 27.3572 52.3701 22.577 49.8561C17.8218 47.3345 14.5989 43.2412 12.9082 37.5762ZM20.4834 35.263C21.5627 38.8795 23.5676 41.5097 26.4981 43.1535C29.4462 44.7644 32.5408 45.075 35.7819 44.0853C39.0733 43.0802 41.4772 41.0768 42.9938 38.0749C44.528 35.0401 44.7629 31.7398 43.6987 28.1739C42.6269 24.5827 40.6132 21.969 37.6576 20.3328C34.702 18.6966 31.6162 18.3696 28.4002 19.3516C25.0335 20.3797 22.6119 22.4161 21.1355 25.4609C19.6592 28.5056 19.4418 31.773 20.4834 35.263Z" fill="#B2FFFF"/>
<path d="M9.26981 34.3252C7.57911 28.6603 8.05333 23.4518 10.6925 18.6998C13.3241 13.9226 17.3157 10.7168 22.6672 9.08265C27.9183 7.47915 32.9641 7.89758 37.8046 10.3379C42.6376 12.753 45.9145 16.8436 47.6354 22.6097C49.3563 28.3759 48.8683 33.63 46.1713 38.372C43.4995 43.1063 39.5255 46.2791 34.2493 47.8903C28.8223 49.5475 23.7188 49.1191 18.9385 46.6051C14.1834 44.0835 10.9605 39.9902 9.26981 34.3252ZM16.8449 32.0121C17.9243 35.6285 19.9292 38.2587 22.8597 39.9026C25.8078 41.5135 28.9024 41.824 32.1435 40.8343C35.4348 39.8293 37.8388 37.8258 39.3554 34.824C40.8896 31.7892 41.1245 28.4888 40.0603 24.9229C38.9885 21.3317 36.9748 18.718 34.0192 17.0819C31.0635 15.4457 27.9777 15.1186 24.7617 16.1006C21.395 17.1287 18.9735 19.1651 17.4971 22.2099C16.0207 25.2546 15.8034 28.522 16.8449 32.0121Z" fill="#FFB2FF"/>
<defs>
<linearGradient id="paint0_linear" x1="27.5" y1="-2.5" x2="30" y2="60" gradientUnits="userSpaceOnUse">
<stop stop-color="#C65AC2"/>
<stop offset="1" stop-color="#793377"/>
</linearGradient>
</defs>
</svg>
