<svg width="144" height="100" viewBox="0 0 144 100" fill="none" xmlns="http://www.w3.org/2000/svg">
<path d="M144 61.0795C141.326 65.838 138.459 69.7152 135.397 72.711C132.336 75.7068 128.711 78.0856 124.521 79.8472C117.919 82.6228 110.781 83.5658 103.108 82.6761C95.4553 81.7778 87.5615 78.3333 79.4266 72.3427L78 68.8629C82.8117 70.9556 86.7487 72.4052 89.811 73.2117C92.8613 74.0473 96.5795 74.554 100.966 74.7317C105.36 74.93 109.791 74.6317 114.257 73.8369C118.753 73.054 123.003 71.8205 127.01 70.1362C130.689 68.5894 133.675 66.9008 135.967 65.0704C138.281 63.2314 140.537 60.8746 142.738 58L144 61.0795Z" fill="#793377"/>
<path d="M141 54.8802C138.68 59.6926 136.094 63.6675 133.242 66.805C130.391 69.9425 126.921 72.5272 122.832 74.5591C116.389 77.7605 109.259 79.231 101.443 78.9706C93.6471 78.7003 85.405 75.9857 76.7169 70.827L75 67.5723C80.0234 69.2203 84.1127 70.3147 87.268 70.8553C90.4134 71.425 94.2068 71.6243 98.6482 71.4531C103.1 71.3012 107.548 70.6661 111.993 69.5478C116.469 68.4389 120.661 66.9131 124.571 64.9704C128.161 63.1863 131.041 61.3192 133.21 59.3692C135.398 57.4093 137.489 54.9529 139.481 52L141 54.8802Z" fill="#41D4BC"/>
<path d="M38.8396 58.8104C36.4379 63.0245 33.8957 66.4293 31.2128 69.0249C28.5234 71.5902 25.9647 73.1304 23.5367 73.6455C22.3833 73.8902 20.7116 73.7858 18.5213 73.3323C18.6659 80.2673 19.0751 87.7004 19.7489 95.6314C16.6828 96.7251 13.0276 98.1814 8.78352 100C7.9871 91.4934 7.37815 80.3666 6.95666 66.6195C6.50023 66.1148 5.59873 64.7862 4.25217 62.6339L1.91802 66.6436L0.870917 66.8658L0 62.7761L6.7436 51.9891C6.67751 43.4859 6.77335 37.3072 7.03112 33.4531C7.2889 29.5989 7.87577 25.2791 8.79173 20.4937C9.70124 15.678 10.3311 12.9005 10.6812 12.1614C11.0249 11.3919 12.0611 10.5229 13.7899 9.55456C15.5427 8.54945 17.4265 7.56403 19.4413 6.5983C21.4498 5.60227 22.5299 5.08816 22.6816 5.05596C23.8349 4.81127 24.9371 5.36901 25.9881 6.72916C27.0326 8.05902 27.8161 9.95084 28.3387 12.4046C29.2419 16.6458 28.9898 20.9737 27.5825 25.3884C26.1752 29.8031 22.9583 35.5516 17.9318 42.6339L18.1429 62.394C20.3074 65.2593 22.8769 66.3765 25.8513 65.7454C30.1004 64.844 34.0589 60.7904 37.7268 53.5847L38.8396 58.8104ZM18.0271 36.1545C20.9201 32.3112 22.9907 28.4048 24.2391 24.4354C25.5113 20.4293 25.8281 16.9268 25.1895 13.9277C24.9185 12.6553 24.4531 11.6617 23.7933 10.9468C23.1639 10.2254 22.5001 9.93882 21.8021 10.0869C20.4667 10.3702 19.4718 12.4019 18.8176 16.1819C18.1937 19.9554 17.9302 26.613 18.0271 36.1545Z" fill="#793377"/>
<path d="M72.8931 51.5857C66.8621 60.6542 61.7827 65.6263 57.655 66.502C55.8036 66.8948 54.0761 66.4539 52.4723 65.1794C50.8621 63.8746 49.8119 62.071 49.3216 59.7687C48.412 55.4972 49.4841 49.2855 52.5382 41.1336C50.5374 42.7612 48.2499 44.0856 45.6758 45.1067C44.4772 49.1605 42.2136 53.7252 38.8851 58.8007L37.838 59.0229L36.9671 54.9332C38.8119 51.9772 40.3904 48.8877 41.7025 45.6647C38.8472 45.0673 37.1776 43.6325 36.6938 41.3605C36.1971 39.0279 36.4572 36.3764 37.4741 33.406C38.515 30.3988 40.4316 28.5991 43.2239 28.0067C45.5912 27.5044 47.0329 28.465 47.549 30.8885C47.9555 32.7971 47.8532 35.6684 47.2422 39.5025C52.1643 37.8883 55.7458 33.1073 57.9868 25.1595L62.091 24.0988L60.3343 36.6299C59.6191 41.911 59.1938 45.4999 59.0585 47.3967C58.9167 49.2632 58.9909 50.8781 59.2812 52.2413C59.5522 53.5137 60.0566 54.4674 60.7946 55.1024C61.5629 55.7309 62.4478 55.9389 63.4494 55.7265C64.542 55.4946 65.5117 54.909 66.3584 53.9694C67.1987 52.9996 69.006 50.4631 71.7802 46.36L72.8931 51.5857Z" fill="#793377"/>
<path d="M106.947 44.361C103.898 48.9655 101.035 52.5017 98.3568 54.9697C95.672 57.4074 92.4782 59.019 88.7755 59.8046C84.6478 60.6803 81.0286 60.0708 77.9178 57.9762C74.8375 55.875 72.8393 52.6736 71.9232 48.3719C70.5555 41.9496 71.5509 35.6751 74.9093 29.5483C78.2612 23.3912 82.6536 19.7363 88.0863 18.5837C90.909 17.9849 93.3249 18.2322 95.3342 19.3257C97.3435 20.4192 98.5997 22.1474 99.1029 24.5104C100.438 30.7812 94.845 37.2872 82.3229 44.0283C84.7949 49.678 88.5956 51.9588 93.7248 50.8706C95.728 50.4456 97.5272 49.5098 99.1224 48.0631C100.711 46.5862 102.948 43.6102 105.834 39.1353L106.947 44.361ZM81.3007 41.0156C88.606 37.186 91.6328 32.3327 90.3813 26.4557C89.762 23.5475 88.3901 22.3188 86.2655 22.7695C84.2624 23.1945 82.6761 25.13 81.5066 28.576C80.3307 31.9918 80.262 36.1383 81.3007 41.0156Z" fill="#793377"/>
<path d="M141 37.1362C137.952 41.7407 135.089 45.277 132.41 47.7449C129.725 50.1826 126.532 51.7943 122.829 52.5798C118.701 53.4556 115.082 52.8461 111.971 50.7514C108.891 48.6503 106.893 45.4489 105.977 41.1472C104.609 34.7249 105.604 28.4503 108.963 22.3235C112.315 16.1664 116.707 12.5116 122.14 11.359C124.962 10.7601 127.378 11.0075 129.388 12.101C131.397 13.1945 132.653 14.9227 133.156 17.2856C134.492 23.5564 128.898 30.0624 116.376 36.8036C118.848 42.4533 122.649 44.734 127.778 43.6458C129.781 43.2208 131.581 42.285 133.176 40.8384C134.765 39.3615 137.002 36.3855 139.887 31.9105L141 37.1362ZM115.354 33.7909C122.659 29.9613 125.686 25.108 124.435 19.231C123.815 16.3228 122.444 15.094 120.319 15.5448C118.316 15.9698 116.73 17.9053 115.56 21.3513C114.384 24.767 114.315 28.9135 115.354 33.7909Z" fill="#793377"/>
<path d="M38.5642 53.8104C36.1795 58.0245 33.6553 61.4293 30.9914 64.0249C28.3211 66.5902 25.7806 68.1304 23.3697 68.6455C22.2246 68.8902 20.5647 68.7858 18.39 68.3323C18.5335 75.2673 18.9398 82.7004 19.6089 90.6314C16.5644 91.7251 12.9352 93.1814 8.72122 95C7.93046 86.4934 7.32582 75.3666 6.90733 61.6195C6.45413 61.1148 5.55903 59.7862 4.22201 57.6339L1.90441 61.6436L0.86474 61.8658L0 57.7761L6.69578 46.9891C6.63015 38.4859 6.72531 32.3072 6.98126 28.4531C7.2372 24.5989 7.81991 20.2791 8.72938 15.4937C9.63244 10.678 10.2578 7.90055 10.6054 7.16135C10.9467 6.39186 11.9756 5.52293 13.6921 4.55456C15.4324 3.54945 17.3029 2.56403 19.3035 1.5983C21.2976 0.602269 22.3701 0.0881566 22.5207 0.0559608C23.6659 -0.188727 24.7602 0.369005 25.8038 1.72916C26.8409 3.05902 27.6189 4.95084 28.1377 7.40464C29.0345 11.6458 28.7842 15.9737 27.3869 20.3884C25.9896 24.8031 22.7955 30.5516 17.8046 37.6339L18.0142 57.394C20.1634 60.2593 22.7147 61.3765 25.6679 60.7454C29.8869 59.844 33.8173 55.7904 37.4592 48.5847L38.5642 53.8104ZM17.8992 31.1545C20.7717 27.3112 22.8277 23.4048 24.0672 19.4354C25.3304 15.4293 25.645 11.9268 25.0108 8.92766C24.7418 7.65532 24.2797 6.6617 23.6246 5.94679C22.9996 5.22545 22.3406 4.93882 21.6475 5.08692C20.3215 5.37025 19.3337 7.40191 18.6841 11.1819C18.0647 14.9554 17.803 21.613 17.8992 31.1545Z" fill="#41D4BC"/>
<path d="M72.3761 46.5857C66.3879 55.6542 61.3445 60.6263 57.2461 61.502C55.4079 61.8948 53.6925 61.4539 52.1002 60.1794C50.5014 58.8746 49.4586 57.071 48.9718 54.7687C48.0686 50.4972 49.1332 44.2855 52.1656 36.1336C50.1789 37.7612 47.9077 39.0856 45.3519 40.1067C44.1617 44.1605 41.9142 48.7252 38.6094 53.8007L37.5697 54.0229L36.7049 49.9332C38.5367 46.9772 40.1039 43.8877 41.4068 40.6647C38.5717 40.0673 36.914 38.6325 36.4336 36.3605C35.9403 34.0279 36.1986 31.3764 37.2084 28.406C38.2419 25.3988 40.1448 23.5991 42.9173 23.0067C45.2679 22.5044 46.6994 23.465 47.2118 25.8885C47.6154 27.7971 47.5138 30.6684 46.9071 34.5025C51.7943 32.8883 55.3505 28.1073 57.5756 20.1595L61.6506 19.0988L59.9064 31.6299C59.1963 36.911 58.774 40.4999 58.6396 42.3967C58.4988 44.2632 58.5726 45.8781 58.8608 47.2413C59.1298 48.5137 59.6307 49.4674 60.3634 50.1024C61.1263 50.7309 62.0049 50.9389 62.9994 50.7265C64.0843 50.4946 65.0471 49.909 65.8878 48.9694C66.7221 47.9996 68.5166 45.4631 71.2712 41.36L72.3761 46.5857Z" fill="#41D4BC"/>
<path d="M106.188 39.361C103.162 43.9655 100.319 47.5017 97.6593 49.9697C94.9935 52.4074 91.8224 54.019 88.1458 54.8046C84.0474 55.6803 80.4539 55.0708 77.3652 52.9762C74.3067 50.875 72.3227 47.6736 71.4131 43.3719C70.0551 36.9496 71.0434 30.6751 74.378 24.5483C77.7062 18.3912 82.0674 14.7363 87.4616 13.5837C90.2642 12.9849 92.663 13.2322 94.6581 14.3257C96.6531 15.4192 97.9005 17.1474 98.4001 19.5104C99.726 25.7812 94.1724 32.2872 81.7391 39.0283C84.1936 44.678 87.9672 46.9588 93.0601 45.8706C95.0491 45.4456 96.8355 44.5098 98.4194 43.0631C99.997 41.5862 102.218 38.6102 105.083 34.1353L106.188 39.361ZM80.7241 36.0156C87.9776 32.186 90.983 27.3327 89.7403 21.4557C89.1254 18.5475 87.7632 17.3188 85.6537 17.7695C83.6648 18.1945 82.0897 20.13 80.9285 23.576C79.761 26.9918 79.6928 31.1383 80.7241 36.0156Z" fill="#41D4BC"/>
<path d="M140 32.1362C136.973 36.7407 134.131 40.277 131.471 42.7449C128.805 45.1826 125.634 46.7943 121.958 47.5798C117.859 48.4556 114.266 47.8461 111.177 45.7514C108.119 43.6503 106.135 40.4489 105.225 36.1472C103.867 29.7249 104.855 23.4503 108.19 17.3235C111.518 11.1664 115.879 7.51158 121.274 6.35897C124.076 5.76013 126.475 6.00747 128.47 7.10098C130.465 8.19449 131.712 9.92271 132.212 12.2856C133.538 18.5564 127.984 25.0624 115.551 31.8036C118.006 37.4533 121.779 39.734 126.872 38.6458C128.861 38.2208 130.647 37.285 132.231 35.8384C133.809 34.3615 136.03 31.3855 138.895 26.9105L140 32.1362ZM114.536 28.7909C121.79 24.9613 124.795 20.108 123.552 14.231C122.937 11.3228 121.575 10.094 119.466 10.5448C117.477 10.9698 115.902 12.9053 114.74 16.3513C113.573 19.767 113.505 23.9135 114.536 28.7909Z" fill="#41D4BC"/>
</svg>
