<svg width="112" height="120" viewBox="0 0 112 120" fill="none" xmlns="http://www.w3.org/2000/svg">
<path d="M17 112.566C20.8488 105.713 24.9763 100.13 29.3824 95.8161C33.7885 91.5021 39.0071 88.0768 45.0383 85.5401C54.541 81.5432 64.8148 80.1853 75.8595 81.4665C86.8749 82.76 98.2372 87.72 109.947 96.3465L112 101.357C105.074 98.3439 99.4072 96.2565 94.9993 95.0952C90.6087 93.8919 85.2568 93.1623 78.9436 92.9063C72.6182 92.6208 66.2409 93.0503 59.8117 94.1949C53.3409 95.3222 47.2224 97.0985 41.456 99.5239C36.1604 101.751 31.8624 104.183 28.5622 106.819C25.2325 109.467 21.9842 112.861 18.8172 117L17 112.566Z" fill="#793377"/>
<path d="M10 110.84C13.3047 103.888 16.9875 98.1469 21.0486 93.615C25.1096 89.083 30.0522 85.3496 35.8761 82.4147C45.0525 77.7903 55.2066 75.6663 66.3386 76.0424C77.4421 76.4329 89.1808 80.354 101.555 87.8055L104 92.5067C96.8454 90.1262 91.0213 88.5455 86.5274 87.7646C82.0476 86.9416 76.6449 86.6538 70.3193 86.901C63.9793 87.1205 57.6437 88.0379 51.3125 89.6531C44.9386 91.255 38.9674 93.4589 33.3991 96.265C28.2853 98.842 24.1841 101.539 21.0955 104.356C17.9784 107.187 15.0012 110.735 12.164 115L10 110.84Z" fill="#41D4BC"/>
<path d="M53.1291 51.6721C48.9793 58.1282 45.0722 63.0925 41.4077 66.565C37.7339 69.9954 33.3488 72.2799 28.2523 73.4184C22.571 74.6875 17.5737 73.8797 13.2603 70.995C8.98871 68.101 6.19653 63.6601 4.88375 57.6724C2.92383 48.7329 4.22385 39.972 8.78381 31.3896C13.3345 22.7651 19.3487 17.6176 26.8263 15.9472C30.7113 15.0793 34.0454 15.3961 36.8285 16.8976C39.6117 18.399 41.3638 20.7942 42.0849 24.0833C43.9986 32.8119 36.3613 41.949 19.1732 51.4946C22.6469 59.344 27.9137 62.4801 34.9736 60.903C37.7307 60.2871 40.2007 58.9613 42.3836 56.9255C44.5573 54.8476 47.6075 50.6718 51.5343 44.3983L53.1291 51.6721ZM17.7289 47.3055C27.7575 41.8806 31.8751 35.0778 30.0816 26.8974C29.1941 22.8493 27.2882 21.1519 24.364 21.8051C21.6069 22.421 19.442 25.1384 17.8692 29.9572C16.2873 34.7338 16.2405 40.5166 17.7289 47.3055Z" fill="#793377"/>
<path d="M100 41.2018C95.8503 47.6578 91.9431 52.6221 88.2786 56.0947C84.6048 59.5251 80.2197 61.8095 75.1232 62.948C69.4419 64.2171 64.4446 63.4094 60.1312 60.5247C55.8596 57.6307 53.0674 53.1898 51.7547 47.202C49.7947 38.2626 51.0948 29.5017 55.6547 20.9193C60.2054 12.2947 66.2196 7.14724 73.6972 5.47684C77.5823 4.60898 80.9163 4.92577 83.6994 6.42721C86.4826 7.92866 88.2347 10.3239 88.9558 13.613C90.8695 22.3416 83.2323 31.4787 66.0441 41.0243C69.5178 48.8736 74.7846 52.0098 81.8445 50.4327C84.6016 49.8168 87.0716 48.4909 89.2545 46.4552C91.4282 44.3772 94.4784 40.2015 98.4053 33.9279L100 41.2018ZM64.5998 36.8352C74.6284 31.4102 78.746 24.6075 76.9525 16.427C76.065 12.379 74.1591 10.6816 71.2349 11.3348C68.4778 11.9507 66.3129 14.668 64.7401 19.4868C63.1582 24.2635 63.1114 30.0463 64.5998 36.8352Z" fill="#793377"/>
<path d="M49.6408 46.6721C45.4479 53.1282 41.5 58.0925 37.7974 61.565C34.0853 64.9954 29.6545 67.2799 24.5049 68.4184C18.7644 69.6875 13.715 68.8797 9.35676 65.995C5.04068 63.101 2.21941 58.6601 0.892955 52.6724C-1.08738 43.7329 0.226178 34.972 4.83364 26.3896C9.43176 17.7651 15.5086 12.6176 23.0641 10.9472C26.9896 10.0793 30.3584 10.3961 33.1705 11.8976C35.9826 13.399 37.753 15.7942 38.4816 19.0833C40.4152 27.8119 32.6984 36.949 15.3312 46.4946C18.8412 54.344 24.1628 57.4801 31.2963 55.903C34.0821 55.2871 36.5778 53.9613 38.7835 51.9255C40.9797 49.8476 44.0618 45.6718 48.0295 39.3983L49.6408 46.6721ZM13.8719 42.3055C24.005 36.8806 28.1655 30.0778 26.3533 21.8974C25.4565 17.8493 23.5308 16.1519 20.5761 16.8051C17.7903 17.421 15.6028 20.1384 14.0137 24.9572C12.4152 29.7338 12.368 35.5166 13.8719 42.3055Z" fill="#41D4BC"/>
<path d="M97 36.2018C92.807 42.6578 88.8592 47.6221 85.1565 51.0947C81.4445 54.5251 77.0137 56.8095 71.8641 57.948C66.1236 59.2171 61.0742 58.4094 56.7159 55.5247C52.3998 52.6307 49.5786 48.1898 48.2521 42.202C46.2718 33.2626 47.5853 24.5017 52.1928 15.9193C56.7909 7.29472 62.8677 2.14724 70.4232 0.476839C74.3487 -0.391024 77.7175 -0.0742323 80.5296 1.42721C83.3418 2.92866 85.1121 5.3239 85.8408 8.61295C87.7744 17.3416 80.0576 26.4787 62.6904 36.0243C66.2003 43.8736 71.522 47.0098 78.6554 45.4327C81.4412 44.8168 83.937 43.4909 86.1426 41.4552C88.3389 39.3772 91.4209 35.2015 95.3886 28.9279L97 36.2018ZM61.2311 31.8352C71.3642 26.4102 75.5246 19.6075 73.7124 11.427C72.8157 7.37897 70.8899 5.68156 67.9353 6.33479C65.1494 6.95069 62.962 9.66804 61.3729 14.4868C59.7744 19.2635 59.7271 25.0463 61.2311 31.8352Z" fill="#41D4BC"/>
</svg>
