<svg width="146" height="224" viewBox="0 0 146 224" fill="none" xmlns="http://www.w3.org/2000/svg">
<path d="M146 184.722C143.28 189.432 140.363 193.27 137.25 196.235C134.136 199.2 130.448 201.554 126.186 203.298C119.471 206.045 112.21 206.978 104.405 206.098C96.6212 205.209 88.5917 201.8 80.3171 195.87L78.866 192.426C83.7603 194.497 87.765 195.932 90.8799 196.73C93.9826 197.557 97.7646 198.059 102.226 198.235C106.696 198.431 111.203 198.136 115.746 197.349C120.319 196.574 124.643 195.353 128.718 193.686C132.46 192.155 135.497 190.484 137.829 188.672C140.182 186.852 142.478 184.519 144.716 181.674L146 184.722Z" fill="#793377"/>
<path d="M142.741 178.15C140.404 183.14 137.799 187.263 134.927 190.516C132.055 193.77 128.559 196.45 124.44 198.557C117.95 201.877 110.768 203.402 102.895 203.132C95.0422 202.852 86.7399 200.037 77.9884 194.687L76.2589 191.312C81.319 193.021 85.4382 194.156 88.6165 194.716C91.7849 195.307 95.606 195.514 100.08 195.336C104.564 195.179 109.045 194.52 113.522 193.361C118.031 192.211 122.254 190.628 126.192 188.614C129.809 186.763 132.709 184.827 134.894 182.805C137.098 180.772 139.204 178.225 141.211 175.163L142.741 178.15Z" fill="#41D4BC"/>
<path d="M39.7915 182.498C37.3713 186.744 34.8094 190.174 32.1058 192.79C29.3956 195.375 26.8172 196.926 24.3704 197.446C23.2081 197.692 21.5234 197.587 19.3163 197.13C19.4619 204.118 19.8743 211.607 20.5533 219.598C17.4635 220.7 13.7801 222.168 9.50323 224C8.70066 215.429 8.08701 204.218 7.66226 190.366C7.20231 189.858 6.29384 188.519 4.93688 186.35L2.58469 190.39L1.5295 190.614L0.651855 186.494L7.44756 175.625C7.38095 167.057 7.47753 160.831 7.7373 156.948C7.99706 153.065 8.58847 148.712 9.5115 143.89C10.428 139.038 11.0627 136.24 11.4156 135.495C11.7619 134.719 12.8062 133.844 14.5483 132.868C16.3146 131.855 18.2129 130.863 20.2434 129.889C22.2673 128.886 23.3558 128.368 23.5087 128.335C24.6709 128.089 25.7816 128.651 26.8407 130.021C27.8933 131.361 28.6829 133.267 29.2095 135.74C30.1196 140.013 29.8656 144.374 28.4474 148.822C27.0293 153.27 23.7875 159.062 18.7222 166.199L18.9349 186.109C21.1162 188.996 23.7055 190.121 26.7028 189.485C30.9848 188.577 34.9738 184.493 38.6701 177.232L39.7915 182.498ZM18.8182 159.67C21.7335 155.797 23.8202 151.861 25.0782 147.862C26.3603 143.825 26.6795 140.296 26.0359 137.274C25.7629 135.992 25.2939 134.991 24.629 134.271C23.9947 133.544 23.3258 133.255 22.6224 133.405C21.2766 133.69 20.2741 135.737 19.6148 139.546C18.9861 143.348 18.7206 150.056 18.8182 159.67Z" fill="#793377"/>
<path d="M74.1081 175.218C68.0305 184.356 62.9119 189.365 58.7523 190.248C56.8866 190.644 55.1457 190.199 53.5295 188.915C51.9069 187.6 50.8486 185.783 50.3545 183.463C49.4378 179.159 50.5183 172.901 53.5959 164.687C51.5796 166.327 49.2745 167.661 46.6805 168.69C45.4726 172.775 43.1916 177.374 39.8374 182.488L38.7822 182.712L37.9046 178.591C39.7636 175.613 41.3543 172.5 42.6766 169.252C39.7992 168.65 38.1167 167.205 37.6291 164.915C37.1286 162.565 37.3907 159.894 38.4155 156.901C39.4644 153.871 41.3958 152.057 44.2096 151.46C46.5953 150.954 48.0481 151.922 48.5682 154.364C48.9778 156.287 48.8747 159.18 48.259 163.043C53.2191 161.417 56.8284 156.6 59.0867 148.592L63.2225 147.523L61.4523 160.149C60.7315 165.47 60.303 169.086 60.1666 170.998C60.0237 172.878 60.0985 174.505 60.3911 175.879C60.6641 177.161 61.1725 178.122 61.9161 178.762C62.6903 179.395 63.5821 179.605 64.5914 179.39C65.6925 179.157 66.6697 178.567 67.5229 177.62C68.3697 176.643 70.191 174.087 72.9866 169.953L74.1081 175.218Z" fill="#793377"/>
<path d="M108.425 167.939C105.353 172.578 102.468 176.141 99.7685 178.628C97.063 181.084 93.8445 182.708 90.1131 183.5C85.9536 184.382 82.3064 183.768 79.1717 181.657C76.0675 179.54 74.0538 176.314 73.1307 171.98C71.7525 165.509 72.7555 159.187 76.1398 153.014C79.5177 146.81 83.944 143.127 89.4187 141.966C92.2631 141.362 94.6978 141.612 96.7226 142.713C98.7474 143.815 100.013 145.557 100.52 147.937C101.866 154.256 96.2296 160.811 83.6108 167.604C86.1019 173.296 89.9319 175.594 95.1008 174.498C97.1194 174.069 98.9325 173.127 100.54 171.669C102.141 170.181 104.396 167.182 107.303 162.673L108.425 167.939ZM82.5806 164.568C89.9424 160.709 92.9926 155.819 91.7314 149.898C91.1073 146.967 89.7248 145.729 87.5838 146.183C85.5652 146.612 83.9666 148.562 82.7881 152.034C81.6031 155.476 81.534 159.654 82.5806 164.568Z" fill="#793377"/>
<path d="M142.741 160.659C139.669 165.299 136.784 168.862 134.085 171.348C131.38 173.805 128.161 175.428 124.43 176.22C120.27 177.102 116.623 176.488 113.488 174.378C110.384 172.261 108.37 169.035 107.447 164.701C106.069 158.229 107.072 151.907 110.456 145.734C113.834 139.53 118.261 135.848 123.735 134.686C126.58 134.083 129.014 134.332 131.039 135.434C133.064 136.536 134.33 138.277 134.837 140.658C136.183 146.976 130.546 153.532 117.927 160.324C120.418 166.017 124.248 168.315 129.417 167.218C131.436 166.79 133.249 165.847 134.857 164.389C136.458 162.901 138.712 159.903 141.62 155.394L142.741 160.659ZM116.897 157.288C124.259 153.43 127.309 148.54 126.048 142.618C125.424 139.688 124.041 138.45 121.9 138.904C119.882 139.332 118.283 141.282 117.105 144.754C115.92 148.196 115.851 152.374 116.897 157.288Z" fill="#793377"/>
<path d="M39.1397 177.289C36.7194 181.535 34.1575 184.965 31.4539 187.581C28.7438 190.165 26.1653 191.717 23.7185 192.236C22.5563 192.483 20.8716 192.378 18.6644 191.921C18.8101 198.908 19.2224 206.398 19.9015 214.389C16.8116 215.491 13.1283 216.958 8.85137 218.791C8.04881 210.22 7.43515 199.008 7.01041 185.157C6.55045 184.648 5.64199 183.31 4.28502 181.141L1.93283 185.181L0.877645 185.405L0 181.284L6.7957 170.416C6.72909 161.848 6.82568 155.622 7.08544 151.739C7.34521 147.855 7.93661 143.503 8.85965 138.681C9.77619 133.829 10.4109 131.03 10.7637 130.286C11.1101 129.51 12.1543 128.635 13.8965 127.659C15.6627 126.646 17.5611 125.653 19.5915 124.68C21.6155 123.677 22.7039 123.159 22.8568 123.126C24.0191 122.88 25.1297 123.442 26.1888 124.812C27.2414 126.152 28.031 128.058 28.5576 130.531C29.4678 134.804 29.2138 139.165 27.7956 143.613C26.3774 148.061 23.1357 153.853 18.0703 160.989L18.283 180.899C20.4643 183.786 23.0536 184.912 26.051 184.276C30.3329 183.368 34.322 179.284 38.0182 172.023L39.1397 177.289ZM18.1663 154.461C21.0817 150.588 23.1684 146.652 24.4264 142.653C25.7084 138.616 26.0277 135.087 25.3841 132.065C25.111 130.783 24.642 129.782 23.9772 129.062C23.3429 128.335 22.674 128.046 21.9705 128.195C20.6248 128.481 19.6222 130.528 18.9629 134.337C18.3342 138.139 18.0687 144.847 18.1663 154.461Z" fill="#41D4BC"/>
<path d="M73.4562 170.009C67.3786 179.146 62.26 184.156 58.1004 185.039C56.2347 185.434 54.4938 184.99 52.8777 183.706C51.2551 182.391 50.1967 180.574 49.7026 178.254C48.786 173.95 49.8664 167.691 52.944 159.478C50.9278 161.118 48.6227 162.452 46.0287 163.481C44.8208 167.565 42.5397 172.165 39.1855 177.279L38.1304 177.503L37.2527 173.382C39.1118 170.404 40.7024 167.291 42.0247 164.043C39.1473 163.441 37.4649 161.996 36.9773 159.706C36.4767 157.356 36.7388 154.684 37.7637 151.691C38.8126 148.661 40.7439 146.848 43.5578 146.251C45.9434 145.745 47.3963 146.713 47.9164 149.155C48.3259 151.078 48.2229 153.971 47.6072 157.834C52.5673 156.208 56.1765 151.39 58.4348 143.382L62.5707 142.314L60.8004 154.94C60.0797 160.261 59.6511 163.877 59.5147 165.788C59.3718 167.669 59.4467 169.296 59.7392 170.67C60.0123 171.952 60.5206 172.913 61.2643 173.552C62.0385 174.186 62.9303 174.395 63.9396 174.181C65.0406 173.948 66.0178 173.358 66.8711 172.411C67.7179 171.434 69.5391 168.878 72.3348 164.744L73.4562 170.009Z" fill="#41D4BC"/>
<path d="M107.773 162.729C104.701 167.369 101.816 170.932 99.1167 173.419C96.4111 175.875 93.1927 177.499 89.4613 178.29C85.3017 179.173 81.6545 178.559 78.5198 176.448C75.4156 174.331 73.402 171.105 72.4788 166.771C71.1006 160.3 72.1036 153.978 75.488 147.804C78.8658 141.601 83.2921 137.918 88.7668 136.757C91.6113 136.153 94.0459 136.402 96.0707 137.504C98.0955 138.606 99.3615 140.347 99.8686 142.728C101.214 149.047 95.5777 155.602 82.9589 162.394C85.45 168.087 89.28 170.385 94.4489 169.288C96.4675 168.86 98.2806 167.917 99.8882 166.46C101.489 164.972 103.744 161.973 106.651 157.464L107.773 162.729ZM81.9288 159.359C89.2905 155.5 92.3408 150.61 91.0795 144.688C90.4554 141.758 89.0729 140.52 86.9319 140.974C84.9133 141.402 83.3148 143.353 82.1363 146.825C80.9513 150.266 80.8821 154.444 81.9288 159.359Z" fill="#41D4BC"/>
<path d="M142.089 155.45C139.018 160.089 136.132 163.652 133.433 166.139C130.728 168.595 127.509 170.219 123.778 171.011C119.618 171.893 115.971 171.279 112.836 169.168C109.732 167.051 107.719 163.826 106.795 159.491C105.417 153.02 106.42 146.698 109.805 140.525C113.182 134.321 117.609 130.638 123.083 129.477C125.928 128.874 128.362 129.123 130.387 130.225C132.412 131.327 133.678 133.068 134.185 135.449C135.531 141.767 129.894 148.322 117.275 155.115C119.767 160.807 123.597 163.105 128.765 162.009C130.784 161.581 132.597 160.638 134.205 159.18C135.806 157.692 138.06 154.694 140.968 150.185L142.089 155.45ZM116.245 152.079C123.607 148.221 126.657 143.33 125.396 137.409C124.772 134.479 123.389 133.24 121.248 133.695C119.23 134.123 117.631 136.073 116.453 139.545C115.268 142.987 115.199 147.165 116.245 152.079Z" fill="#41D4BC"/>
<ellipse cx="45.5969" cy="117.209" rx="4.5625" ry="4.55814" fill="#793377"/>
<ellipse cx="73" cy="117.209" rx="4.5625" ry="4.55814" fill="#793377"/>
<ellipse cx="100.375" cy="117.209" rx="4.5625" ry="4.55814" fill="#793377"/>
<path d="M102.33 82.3397C102.33 77.4967 103.932 73.5293 107.135 70.4376C110.338 67.3242 114.244 65.7675 118.853 65.7675C123.377 65.7675 127.261 67.3026 130.507 70.3727C133.754 73.4212 135.377 77.4102 135.377 82.3397C135.377 87.2692 133.754 91.2691 130.507 94.3392C127.283 97.4093 123.398 98.9444 118.853 98.9444C114.179 98.9444 110.251 97.3877 107.07 94.2743C103.91 91.161 102.33 87.1828 102.33 82.3397ZM108.855 82.3397C108.855 85.4315 109.818 87.9719 111.744 89.961C113.692 91.9285 116.062 92.9122 118.853 92.9122C121.688 92.9122 124.058 91.9177 125.963 89.9286C127.889 87.9179 128.852 85.3882 128.852 82.3397C128.852 79.2696 127.878 76.74 125.93 74.7509C123.982 72.7618 121.624 71.7672 118.853 71.7672C115.954 71.7672 113.562 72.7834 111.679 74.8158C109.797 76.8481 108.855 79.3561 108.855 82.3397Z" fill="#FDD4B7"/>
<path opacity="0.9" d="M99.7231 79.0839C99.7231 74.2409 101.325 70.2735 104.528 67.1818C107.73 64.0684 111.637 62.5117 116.246 62.5117C120.769 62.5117 124.654 64.0468 127.9 67.1169C131.146 70.1654 132.769 74.1544 132.769 79.0839C132.769 84.0134 131.146 88.0133 127.9 91.0834C124.676 94.1535 120.791 95.6886 116.246 95.6886C111.572 95.6886 107.644 94.1319 104.463 91.0185C101.303 87.9052 99.7231 83.927 99.7231 79.0839ZM106.248 79.0839C106.248 82.1757 107.211 84.7161 109.137 86.7052C111.085 88.6727 113.455 89.6564 116.246 89.6564C119.081 89.6564 121.451 88.6619 123.355 86.6728C125.282 84.6621 126.245 82.1325 126.245 79.0839C126.245 76.0138 125.271 73.4842 123.323 71.4951C121.375 69.506 119.016 68.5114 116.246 68.5114C113.346 68.5114 110.955 69.5276 109.072 71.56C107.189 73.5923 106.248 76.1003 106.248 79.0839Z" fill="#793377"/>
<path d="M61.7738 93.7724L53.3662 67.3412H49.5356V61.8604H62.7801V67.3412H58.6575L64.6629 86.2809L70.6684 67.3412H67.2274V61.8604H82.4196V67.3412H78.9787L84.9841 86.2809L91.0221 67.3412H86.7046V61.8604H100.891V67.3412H96.3783L87.9382 93.7724H82.1275L74.9209 71.0707L67.5845 93.7724H61.7738Z" fill="#B2FFFF"/>
<path opacity="0.9" d="M58.5149 95.7259L50.1072 69.2947H46.2767V63.8138H59.5212V69.2947H55.3986L61.404 88.2344L67.4095 69.2947H63.9685V63.8138H79.1607V69.2947H75.7198L81.7252 88.2344L87.7631 69.2947H83.4457V63.8138H97.6316V69.2947H93.1194L84.6793 95.7259H78.8686L71.662 73.0242L64.3256 95.7259H58.5149Z" fill="#793377"/>
<path d="M17.1094 72.6072V67.1263H21.1996V62.2941L27.3674 56.6511V67.1263H33.1781V72.6072H27.3674V87.8497C27.3674 90.2928 27.4972 91.8063 27.7569 92.39C28.0382 92.9522 28.7199 93.2333 29.802 93.2333C30.949 93.2333 32.0744 93.017 33.1781 92.5846V98.1952C31.5982 98.7573 30.0184 99.0384 28.4386 99.0384C26.5558 99.0384 25.0301 98.6276 23.8615 97.806C22.6928 96.9628 21.957 95.9142 21.6541 94.6602C21.3511 93.4062 21.1996 91.2442 21.1996 88.174V72.6072H17.1094Z" fill="#FFFFB2"/>
<path opacity="0.9" d="M21.6719 69.3514V63.8705H25.7621V59.0383L31.9299 53.3953V63.8705H37.7406V69.3514H31.9299V84.5939C31.9299 87.037 32.0597 88.5505 32.3194 89.1343C32.6007 89.6964 33.2824 89.9775 34.3645 89.9775C35.5115 89.9775 36.6369 89.7612 37.7406 89.3288V94.9394C36.1607 95.5015 34.5809 95.7826 33.0011 95.7826C31.1183 95.7826 29.5926 95.3718 28.424 94.5502C27.2553 93.707 26.5195 92.6584 26.2166 91.4044C25.9136 90.1504 25.7621 87.9884 25.7621 84.9182V69.3514H21.6719Z" fill="#793377"/>
<path d="M131.987 26.5941H105.563C105.952 29.4912 107.099 31.8371 109.004 33.6316C110.908 35.4261 113.343 36.3233 116.308 36.3233C120.614 36.3233 124.023 34.5937 126.533 31.1344L131.987 33.5343C130.212 36.2801 127.907 38.3233 125.072 39.6637C122.237 40.9826 119.272 41.642 116.178 41.642C111.373 41.642 107.261 40.1502 103.842 37.1665C100.444 34.1613 98.7456 30.1182 98.7456 25.0374C98.7456 20.216 100.401 16.2486 103.712 13.1352C107.045 10.0218 110.865 8.46515 115.171 8.46515C119.391 8.46515 123.211 9.9894 126.63 13.0379C130.071 16.0648 131.857 20.5835 131.987 26.5941ZM125.624 22.1186C125.191 19.9133 124.044 17.9242 122.183 16.1513C120.322 14.3568 118.039 13.4595 115.334 13.4595C112.867 13.4595 110.757 14.2703 109.004 15.8918C107.251 17.4918 106.179 19.5673 105.79 22.1186H125.624Z" fill="#FFFFB2"/>
<path opacity="0.9" d="M129.38 22.0359H102.955C103.345 24.9331 104.492 27.2789 106.396 29.0734C108.301 30.8679 110.736 31.7652 113.7 31.7652C118.007 31.7652 121.415 30.0355 123.926 26.5762L129.38 28.9761C127.605 31.7219 125.3 33.7651 122.465 35.1056C119.63 36.4244 116.665 37.0839 113.571 37.0839C108.766 37.0839 104.654 35.592 101.235 32.6084C97.8373 29.6031 96.1384 25.5601 96.1384 20.4792C96.1384 15.6578 97.794 11.6904 101.105 8.57704C104.438 5.46367 108.258 3.90698 112.564 3.90698C116.784 3.90698 120.604 5.43124 124.023 8.47975C127.464 11.5066 129.25 16.0253 129.38 22.0359ZM123.017 17.5604C122.584 15.3551 121.437 13.366 119.576 11.5931C117.715 9.79861 115.432 8.90135 112.727 8.90135C110.259 8.90135 108.149 9.71212 106.396 11.3337C104.643 12.9336 103.572 15.0092 103.183 17.5604H123.017Z" fill="#793377"/>
<path d="M71.4877 9.60274V13.3972C75.4481 10.5432 79.0622 9.11627 82.33 9.11627C84.3643 9.11627 86.0415 9.60274 87.3616 10.5757C88.7034 11.527 89.5798 12.7053 89.991 14.1106C90.4022 15.4944 90.6078 17.5267 90.6078 20.2077V35.5151H95.8991V40.9959H84.44V20.4671C84.44 18.0888 84.083 16.543 83.3688 15.8295C82.6546 15.0944 81.7782 14.7268 80.7394 14.7268C78.0126 14.7268 74.9287 16.0565 71.4877 18.7158V35.5151H76.9089V40.9959H59.8014V35.5151H65.3199V15.0836H59.8014V9.60274H71.4877Z" fill="#FDD4B7"/>
<path opacity="0.9" d="M65.6216 4.39345V8.18787C69.582 5.33394 73.1961 3.90698 76.4639 3.90698C78.4982 3.90698 80.1754 4.39345 81.4955 5.36638C82.8373 6.31768 83.7138 7.49601 84.125 8.90135C84.5361 10.2851 84.7417 12.3174 84.7417 14.9984V30.3058H90.033V35.7866H78.574V15.2578C78.574 12.8795 78.2169 11.3337 77.5027 10.6202C76.7885 9.88509 75.9121 9.51754 74.8733 9.51754C72.1465 9.51754 69.0626 10.8472 65.6216 13.5065V30.3058H71.0428V35.7866H53.9353V30.3058H59.4538V9.87428H53.9353V4.39345H65.6216Z" fill="#793377"/>
<path d="M11.0803 16.5722C11.0803 11.7292 12.6818 7.76181 15.8847 4.67006C19.0876 1.55669 22.9939 0 27.6035 0C32.1265 0 36.0111 1.53507 39.2573 4.6052C42.5035 7.65371 44.1266 11.6427 44.1266 16.5722C44.1266 21.5017 42.5035 25.5015 39.2573 28.5717C36.0328 31.6418 32.1481 33.1769 27.6035 33.1769C22.9289 33.1769 19.001 31.6202 15.8198 28.5068C12.6601 25.3934 11.0803 21.4152 11.0803 16.5722ZM17.6052 16.5722C17.6052 19.664 18.5682 22.2044 20.4943 24.1935C22.442 26.161 24.8117 27.1447 27.6035 27.1447C30.4385 27.1447 32.8082 26.1502 34.7126 24.1611C36.6387 22.1503 37.6018 19.6207 37.6018 16.5722C37.6018 13.5021 36.6279 10.9725 34.6802 8.98338C32.7325 6.99428 30.3736 5.99973 27.6035 5.99973C24.7035 5.99973 22.3122 7.0159 20.4294 9.04824C18.5466 11.0806 17.6052 13.5886 17.6052 16.5722Z" fill="#B2FFFF"/>
<path opacity="0.9" d="M15.6428 20.4792C15.6428 15.6362 17.2443 11.6688 20.4472 8.57704C23.6501 5.46367 27.5564 3.90698 32.166 3.90698C36.689 3.90698 40.5736 5.44205 43.8198 8.51218C47.066 11.5607 48.6891 15.5497 48.6891 20.4792C48.6891 25.4087 47.066 29.4085 43.8198 32.4787C40.5953 35.5488 36.7106 37.0839 32.166 37.0839C27.4914 37.0839 23.5635 35.5272 20.3823 32.4138C17.2226 29.3004 15.6428 25.3222 15.6428 20.4792ZM22.1677 20.4792C22.1677 23.571 23.1307 26.1114 25.0568 28.1005C27.0045 30.068 29.3742 31.0517 32.166 31.0517C35.001 31.0517 37.3707 30.0571 39.2751 28.068C41.2012 26.0573 42.1643 23.5277 42.1643 20.4792C42.1643 17.4091 41.1904 14.8795 39.2427 12.8904C37.295 10.9013 34.9361 9.90671 32.166 9.90671C29.266 9.90671 26.8747 10.9229 24.9919 12.9552C23.1091 14.9876 22.1677 17.4956 22.1677 20.4792Z" fill="#793377"/>
</svg>
