<svg width="112" height="112" viewBox="0 0 112 112" fill="none" xmlns="http://www.w3.org/2000/svg">
<path d="M109.658 79.591C105.689 86.5656 101.433 92.2484 96.8894 96.6394C92.3459 101.03 86.9644 104.517 80.745 107.099C70.9458 111.167 60.3514 112.549 48.962 111.245C37.603 109.929 25.8861 104.88 13.8113 96.0996L11.6938 90.9991C18.8359 94.0665 24.6796 96.1912 29.225 97.3733C33.7526 98.598 39.2715 99.3406 45.7818 99.6012C52.3045 99.8918 58.8808 99.4546 65.5106 98.2896C72.1833 97.1422 78.4928 95.3341 84.4391 92.8655C89.9 90.5984 94.332 88.1234 97.7353 85.4405C101.169 82.7451 104.519 79.2907 107.784 75.0774L109.658 79.591Z" fill="#793377"/>
<path d="M104.746 70.3502C101.344 77.6186 97.5539 83.6221 93.3742 88.3608C89.1946 93.0995 84.1077 97.0033 78.1136 100.072C68.6692 104.907 58.2185 107.128 46.7614 106.735C35.3336 106.327 23.2521 102.227 10.5167 94.4353L8 89.5196C15.3635 92.0088 21.3578 93.6616 25.9829 94.4781C30.5936 95.3386 36.1541 95.6396 42.6645 95.3811C49.1896 95.1516 55.7103 94.1924 62.2263 92.5034C68.7865 90.8285 74.932 88.524 80.663 85.5899C85.9261 82.8953 90.1471 80.0753 93.326 77.1301C96.5341 74.1699 99.5982 70.4599 102.518 66L104.746 70.3502Z" fill="#41D4BC"/>
<path d="M55.0176 53.8155C50.6903 60.4851 46.6159 65.6136 42.7946 69.2011C38.9636 72.7449 34.3908 75.1049 29.0763 76.2811C23.1518 77.5922 17.9406 76.7577 13.4427 73.7776C8.98832 70.7878 6.07666 66.2001 4.7077 60.0143C2.66391 50.7791 4.01956 41.7284 8.77465 32.8621C13.5201 23.9523 19.7916 18.6346 27.5892 16.9089C31.6405 16.0123 35.1173 16.3396 38.0195 17.8907C40.9217 19.4418 42.7488 21.9163 43.5008 25.3141C45.4963 34.3315 37.5323 43.7708 19.6086 53.6322C23.231 61.7411 28.7232 64.981 36.0852 63.3518C38.9603 62.7155 41.536 61.3458 43.8123 59.2427C46.0789 57.096 49.2597 52.7822 53.3546 46.3011L55.0176 53.8155ZM18.1025 49.3045C28.5603 43.7001 32.8541 36.6723 30.9838 28.2213C30.0583 24.0393 28.0709 22.2858 25.0215 22.9606C22.1465 23.5969 19.8889 26.4041 18.2489 31.3823C16.5992 36.317 16.5504 42.291 18.1025 49.3045Z" fill="#793377"/>
<path d="M103.894 42.9989C99.5669 49.6685 95.4926 54.797 91.6712 58.3844C87.8402 61.9282 83.2675 64.2882 77.9529 65.4644C72.0285 66.7755 66.8173 65.941 62.3193 62.9609C57.865 59.9712 54.9533 55.3834 53.5843 49.1976C51.5405 39.9624 52.8962 30.9117 57.6513 22.0455C62.3967 13.1356 68.6683 7.81788 76.4659 6.09222C80.5171 5.19565 83.9939 5.52292 86.8961 7.07403C89.7983 8.62514 91.6254 11.0996 92.3774 14.4975C94.373 23.5148 86.4089 32.9541 68.4853 42.8155C72.1076 50.9245 77.5998 54.1643 84.9618 52.5351C87.8369 51.8988 90.4126 50.5291 92.6889 48.426C94.9556 46.2793 98.1363 41.9655 102.231 35.4844L103.894 42.9989ZM66.9792 38.4878C77.4369 32.8834 81.7307 25.8557 79.8604 17.4046C78.9349 13.2227 76.9475 11.4691 73.8982 12.1439C71.0231 12.7802 68.7655 15.5874 67.1255 20.5656C65.4758 25.5003 65.4271 31.4743 66.9792 38.4878Z" fill="#793377"/>
<path d="M51.2314 48.2159C46.9041 54.8855 42.8298 60.014 39.0085 63.6015C35.1775 67.1453 30.6047 69.5053 25.2901 70.6815C19.3657 71.9926 14.1545 71.1581 9.65657 68.178C5.20219 65.1882 2.29052 60.6005 0.921567 54.4147C-1.12223 45.1795 0.233425 36.1288 4.98852 27.2625C9.73397 18.3527 16.0055 13.0349 23.8031 11.3093C27.8544 10.4127 31.3311 10.74 34.2333 12.2911C37.1356 13.8422 38.9627 16.3167 39.7146 19.7145C41.7102 28.7319 33.7462 38.1712 15.8225 48.0326C19.4449 56.1415 24.9371 59.3814 32.299 57.7521C35.1741 57.1159 37.7498 55.7462 40.0261 53.6431C42.2928 51.4964 45.4736 47.1825 49.5684 40.7015L51.2314 48.2159ZM14.3164 43.7049C24.7742 38.1005 29.0679 31.0727 27.1977 22.6217C26.2722 18.4397 24.2848 16.6862 21.2354 17.361C18.3603 17.9973 16.1028 20.8045 14.4627 25.7827C12.8131 30.7174 12.7643 36.6914 14.3164 43.7049Z" fill="#41D4BC"/>
<path d="M100.108 37.3992C95.7808 44.0689 91.7064 49.1974 87.8851 52.7848C84.0541 56.3286 79.4813 58.6886 74.1668 59.8648C68.2423 61.1759 63.0311 60.3414 58.5332 57.3613C54.0788 54.3716 51.1672 49.7838 49.7982 43.598C47.7544 34.3628 49.1101 25.3121 53.8652 16.4458C58.6106 7.53601 64.8821 2.21827 72.6797 0.492612C76.731 -0.403958 80.2078 -0.0766877 83.11 1.47442C86.0122 3.02553 87.8393 5.50001 88.5913 8.89785C90.5868 17.9152 82.6228 27.3545 64.6991 37.2159C68.3215 45.3249 73.8137 48.5647 81.1757 46.9355C84.0508 46.2992 86.6265 44.9295 88.9028 42.8264C91.1694 40.6797 94.3502 36.3659 98.4451 29.8848L100.108 37.3992ZM63.193 32.8882C73.6508 27.2838 77.9446 20.256 76.0743 11.805C75.1488 7.62305 73.1614 5.86949 70.112 6.54432C67.2369 7.1806 64.9794 9.98784 63.3394 14.966C61.6897 19.9007 61.6409 25.8747 63.193 32.8882Z" fill="#41D4BC"/>
</svg>
